<svg width="21" height="21" viewBox="0 0 21 21" fill="none" xmlns="http://www.w3.org/2000/svg">
<path fill-rule="evenodd" clip-rule="evenodd" d="M9.64286 15.4286C9.64286 15.78 9.93429 16.0715 10.2857 16.0715C10.6371 16.0715 10.9286 15.78 10.9286 15.4286V10.9286H15.4286C15.78 10.9286 16.0714 10.6372 16.0714 10.2857C16.0714 9.93432 15.78 9.64289 15.4286 9.64289H10.9286V5.14289C10.9286 4.79146 10.6371 4.50003 10.2857 4.50003C9.93429 4.50003 9.64286 4.79146 9.64286 5.14289V9.64289H5.14286C4.79143 9.64289 4.5 9.93432 4.5 10.2857C4.5 10.6372 4.79143 10.9286 5.14286 10.9286H9.64286V15.4286Z" fill="white"/>
</svg>
