<svg width="56" height="56" viewBox="0 0 56 56" fill="none" xmlns="http://www.w3.org/2000/svg">
<g id="Avatar" clip-path="url(#clip0_87_6849)">
<g id="Layer 2">
<g id="&#226;&#128;&#148;&#195;&#142;&#195;&#147;&#195;&#136; 1">
<path id="Vector" d="M28 56C43.464 56 56 43.464 56 28C56 12.536 43.464 0 28 0C12.536 0 0 12.536 0 28C0 43.464 12.536 56 28 56Z" fill="#58B0E0"/>
<path id="Vector_2" fill-rule="evenodd" clip-rule="evenodd" d="M21.0723 35.0498L35.4864 35.1594V46.8651L21.0723 46.7554V35.0498Z" fill="#F9DCA4"/>
<path id="Vector_3" fill-rule="evenodd" clip-rule="evenodd" d="M39.8441 53.3768C36.1802 55.0832 32.1909 55.978 28.1492 55.9999C24.1075 56.0218 20.1087 55.1703 16.4265 53.5037V43.8731H39.8432L39.8441 53.3768Z" fill="#E6E6E6"/>
<path id="Vector_4" fill-rule="evenodd" clip-rule="evenodd" d="M30.2682 55.9095C29.5203 55.9693 28.7643 55.9995 28.0001 56.0001C27.4232 56.0001 26.8508 55.9829 26.283 55.9484L27.2163 47.804H29.4001L30.2682 55.9095Z" fill="#E9573E"/>
<path id="Vector_5" fill-rule="evenodd" clip-rule="evenodd" d="M23.249 55.5761C20.1618 55.0011 17.1804 53.9586 14.4077 52.4843C11.7445 51.0023 9.33993 49.0972 7.28809 46.8435L8.45158 44.0345L21.0697 38.4055C21.0697 43.1283 22.6201 50.6213 23.249 55.5761Z" fill="#677079"/>
<path id="Vector_6" opacity="0.11" fill-rule="evenodd" clip-rule="evenodd" d="M35.4893 35.1215V38.0493C31.2014 43.0576 23.0089 42.349 21.1721 34.9575L35.4893 35.1215Z" fill="black"/>
<path id="Vector_7" fill-rule="evenodd" clip-rule="evenodd" d="M28.2076 7.64073C47.4913 7.64073 39.9757 39.597 28.2076 39.597C17.0918 39.597 8.9238 7.64073 28.2076 7.64073Z" fill="#FFE8BE"/>
<path id="Vector_8" fill-rule="evenodd" clip-rule="evenodd" d="M16.6415 21.7894C13.8596 23.0027 16.2246 28.754 17.9753 28.7287C17.2491 26.4784 16.8012 24.1485 16.6415 21.7894ZM39.9975 21.7885C42.7793 23.0018 40.4143 28.754 38.6645 28.7278C39.3901 26.4777 39.8378 24.1473 39.9975 21.7885Z" fill="#F9DCA4"/>
<path id="Vector_9" fill-rule="evenodd" clip-rule="evenodd" d="M19.8725 12.9834C16.8514 16.1169 17.9143 24.7906 17.9143 24.7906L16.9629 24.342C11.024 1.33126 45.628 1.33035 39.6556 24.342L38.7041 24.7906C38.7041 24.7906 39.7679 16.1169 36.7468 12.9834C33.0144 16.6035 23.5841 16.5845 19.8725 12.9834Z" fill="#464449"/>
<path id="Vector_10" fill-rule="evenodd" clip-rule="evenodd" d="M33.3164 55.4952C39.4396 54.3127 44.9918 51.1175 49.0907 46.4174L48.103 44.0334L35.4857 38.4044C35.4857 43.1272 33.9453 50.5404 33.3164 55.4952Z" fill="#677079"/>
<path id="Vector_11" fill-rule="evenodd" clip-rule="evenodd" d="M35.4866 38.0401L28.3044 43.8984L34.2606 49.2565C34.2606 49.2565 35.8481 40.4632 35.4866 38.0401Z" fill="black"/>
<path id="Vector_12" fill-rule="evenodd" clip-rule="evenodd" d="M21.0706 38.0401L28.3098 43.8984L22.2884 49.2565C22.2884 49.2565 20.7063 40.4632 21.0706 38.0401Z" fill="black"/>
<path id="Vector_13" fill-rule="evenodd" clip-rule="evenodd" d="M25.4709 46.4194L28.3135 43.8659L31.1561 46.4194L28.3135 48.972L25.4709 46.4194Z" fill="#E9573E"/>
<path id="Vector_14" fill-rule="evenodd" clip-rule="evenodd" d="M23.3486 55.6131C22.1915 55.4195 21.0478 55.1532 19.9243 54.8157C19.889 54.7886 19.8546 54.7605 19.8209 54.7314L16.6177 48.9411L20.7325 45.9871H16.4265L17.3481 39.779L21.0723 37.424C21.2336 44.1023 22.6663 51.6106 23.3486 55.6131ZM33.2057 55.5161C33.7385 55.4273 34.2659 55.3041 34.7887 55.1682C35.4063 55.0047 36.0208 54.8298 36.6318 54.6435L36.7533 54.6046L39.9347 48.8822L35.8199 45.9445H40.1259L39.2044 39.7673L35.4801 37.424C35.3188 44.0679 33.8871 51.5336 33.2057 55.5161Z" fill="#434955"/>
</g>
</g>
</g>
<defs>
<clipPath id="clip0_87_6849">
<rect width="56" height="56" fill="white"/>
</clipPath>
</defs>
</svg>
