<svg width="25" height="24" viewBox="0 0 25 24" fill="none" xmlns="http://www.w3.org/2000/svg">
<g id="regulartask">
<path id="Vector" d="M5.33325 22H19.3333C20.4363 22 21.3333 21.103 21.3333 20V5C21.3333 3.897 20.4363 3 19.3333 3H17.3333C17.3333 2.73478 17.2279 2.48043 17.0404 2.29289C16.8528 2.10536 16.5985 2 16.3333 2H8.33325C8.06804 2 7.81368 2.10536 7.62615 2.29289C7.43861 2.48043 7.33325 2.73478 7.33325 3H5.33325C4.23025 3 3.33325 3.897 3.33325 5V20C3.33325 21.103 4.23025 22 5.33325 22ZM5.33325 5H7.33325V7H17.3333V5H19.3333V20H5.33325V5Z" fill="black" fill-opacity="0.32"/>
<path id="Vector_2" d="M11.3332 13.586L9.54022 11.793L8.12622 13.207L11.3332 16.414L16.5402 11.207L15.1262 9.793L11.3332 13.586Z" fill="black" fill-opacity="0.32"/>
</g>
</svg>
