<svg width="25" height="24" viewBox="0 0 25 24" fill="none" xmlns="http://www.w3.org/2000/svg">
<g id="heroicons-outline/user-group">
<path id="Vector" d="M18.6667 18.7191C18.9142 18.7396 19.1645 18.75 19.4173 18.75C20.4657 18.75 21.4721 18.5708 22.4078 18.2413C22.4141 18.1617 22.4173 18.0812 22.4173 18C22.4173 16.3431 21.0742 15 19.4173 15C18.7897 15 18.2071 15.1927 17.7255 15.5222M18.6667 18.7191C18.6667 18.7294 18.6667 18.7397 18.6667 18.75C18.6667 18.975 18.6544 19.1971 18.6302 19.4156C16.8735 20.4237 14.8374 21 12.6667 21C10.4961 21 8.46002 20.4237 6.70325 19.4156C6.67913 19.1971 6.66675 18.975 6.66675 18.75C6.66675 18.7397 6.66677 18.7295 6.66683 18.7192M18.6667 18.7191C18.6608 17.5426 18.3162 16.4461 17.7255 15.5222M17.7255 15.5222C16.6596 13.8552 14.7922 12.75 12.6667 12.75C10.5415 12.75 8.6744 13.8549 7.60844 15.5216M7.60844 15.5216C7.12698 15.1925 6.54471 15 5.91748 15C4.26063 15 2.91748 16.3431 2.91748 18C2.91748 18.0812 2.92071 18.1617 2.92704 18.2413C3.86267 18.5708 4.86915 18.75 5.91748 18.75C6.16982 18.75 6.41974 18.7396 6.66683 18.7192M7.60844 15.5216C7.01745 16.4457 6.67273 17.5424 6.66683 18.7192M15.6667 6.75C15.6667 8.40685 14.3236 9.75 12.6667 9.75C11.0099 9.75 9.66675 8.40685 9.66675 6.75C9.66675 5.09315 11.0099 3.75 12.6667 3.75C14.3236 3.75 15.6667 5.09315 15.6667 6.75ZM21.6667 9.75C21.6667 10.9926 20.6594 12 19.4167 12C18.1741 12 17.1667 10.9926 17.1667 9.75C17.1667 8.50736 18.1741 7.5 19.4167 7.5C20.6594 7.5 21.6667 8.50736 21.6667 9.75ZM8.16675 9.75C8.16675 10.9926 7.15939 12 5.91675 12C4.67411 12 3.66675 10.9926 3.66675 9.75C3.66675 8.50736 4.67411 7.5 5.91675 7.5C7.15939 7.5 8.16675 8.50736 8.16675 9.75Z" stroke="black" stroke-opacity="0.32" stroke-width="1.8" stroke-linecap="round" stroke-linejoin="round"/>
</g>
</svg>
