<svg width="20" height="26" viewBox="0 0 20 26" fill="none" xmlns="http://www.w3.org/2000/svg">
<path id="Vector" d="M10 0C8.89453 0 8 0.894531 8 2C8 2.08594 8.01953 2.16797 8.03125 2.25C4.57422 3.13281 2 6.27344 2 10V19C2 19.5664 1.56641 20 1 20H0V22H7.1875C7.07422 22.3164 7 22.6484 7 23C7 24.6445 8.35547 26 10 26C11.6445 26 13 24.6445 13 23C13 22.6484 12.9258 22.3164 12.8125 22H20V20H19C18.4336 20 18 19.5664 18 19V10.2812C18 6.52344 15.4883 3.17188 11.9688 2.25C11.9805 2.16797 12 2.08594 12 2C12 0.894531 11.1055 0 10 0ZM9.5625 4C9.70703 3.98828 9.85156 4 10 4C10.0625 4 10.125 4 10.1875 4C13.4531 4.09766 16 6.96094 16 10.2812V19C16 19.3516 16.0742 19.6836 16.1875 20H3.8125C3.92578 19.6836 4 19.3516 4 19V10C4 6.82422 6.44531 4.22656 9.5625 4ZM10 22C10.5625 22 11 22.4375 11 23C11 23.5625 10.5625 24 10 24C9.4375 24 9 23.5625 9 23C9 22.4375 9.4375 22 10 22Z" fill="black"/>
</svg>
