<svg width="14" height="24" viewBox="0 0 14 24" fill="none" xmlns="http://www.w3.org/2000/svg">
<g id="money/ticket-2">
<g id="Group 2">
<path id="Vector" d="M8.41 12.47C8.41 13.76 9.47 14.81 10.76 14.81C10.76 18.56 9.82 19.5 6.07 19.5H-3.31C-7.06 19.5 -8 18.56 -8 14.81V14.35C-6.71 14.35 -5.65 13.29 -5.65 12C-5.65 10.71 -6.71 9.65004 -8 9.65004V9.19004C-7.99 5.44 -7.06 4.5 -3.31 4.5H6.06C9.81 4.5 10.75 5.44 10.75 9.19004V10.13C9.46 10.13 8.41 11.17 8.41 12.47Z" stroke="white" stroke-width="1.5" stroke-linecap="round" stroke-linejoin="round"/>
<path id="Vector_2" d="M-0.621094 4.5V19.5" stroke="white" stroke-width="1.5" stroke-linecap="round" stroke-linejoin="round" stroke-dasharray="5 5"/>
</g>
</g>
</svg>
