<svg width="25" height="24" viewBox="0 0 25 24" fill="none" xmlns="http://www.w3.org/2000/svg">
<g id="money/ticket-star">
<g id="Group 1">
<path id="Vector" d="M20.499 16.995V6.995C20.499 3.165 19.579 2.095 15.999 2.005C15.999 3.935 14.429 5.495 12.499 5.495C10.569 5.495 9.00902 3.935 8.99902 2.005C5.41902 2.095 4.49902 3.165 4.49902 6.995L4.49902 16.995C4.49902 20.995 5.49902 21.995 9.49902 21.995H15.499C19.499 21.995 20.499 20.995 20.499 16.995Z" stroke="white" stroke-width="1.5" stroke-linecap="round" stroke-linejoin="round"/>
<path id="Vector_2" d="M12.8509 11.9871L13.4709 13.2372C13.5309 13.3572 13.6509 13.4472 13.7809 13.4672L15.1609 13.6672C15.5009 13.7172 15.6409 14.1372 15.3909 14.3772L14.3909 15.3472C14.2909 15.4372 14.2509 15.5772 14.2709 15.7172L14.5109 17.0872C14.5709 17.4272 14.2109 17.6872 13.9109 17.5272L12.6809 16.8772C12.5609 16.8172 12.4109 16.8172 12.2909 16.8772L11.0609 17.5272C10.7509 17.6872 10.4009 17.4272 10.4609 17.0872L10.7009 15.7172C10.7209 15.5772 10.6809 15.4472 10.5809 15.3472L9.59094 14.3772C9.34094 14.1372 9.48094 13.7172 9.82094 13.6672L11.2009 13.4672C11.3409 13.4472 11.4509 13.3672 11.5109 13.2372L12.1209 11.9871C12.2609 11.6771 12.7009 11.6771 12.8509 11.9871Z" stroke="white" stroke-width="1.5" stroke-linecap="round" stroke-linejoin="round"/>
</g>
</g>
</svg>
